HIERARCHY
ROOT Hips
{
	OFFSET 0.000000 0.000000 0.000000
	CHANNELS 6 Xposition Yposition Zposition Zrotation Yrotation Xrotation 
	JOINT LHipJoint
	{
		OFFSET 0.000000 0.000000 0.000000
		CHANNELS 3 Zrotation Yrotation Xrotation
		JOINT LeftUpLeg
		{
			OFFSET 1.363060 -1.794630 0.839290
			CHANNELS 3 Zrotation Yrotation Xrotation
			JOINT LeftLeg
			{
				OFFSET 2.448110 -6.726130 0.000000
				CHANNELS 3 Zrotation Yrotation Xrotation
				JOINT LeftFoot
				{
					OFFSET 2.562200 -7.039590 0.000000
					CHANNELS 3 Zrotation Yrotation Xrotation
					JOINT LeftToeBase
					{
						OFFSET 0.157640 -0.433110 2.322550
						CHANNELS 3 Zrotation Yrotation Xrotation
						End Site
						{
							OFFSET 0.000000 0.000000 0.000000
						}
					}
				}
			}
		}
	}
	JOINT RHipJoint
	{
		OFFSET 0.000000 0.000000 0.000000
		CHANNELS 3 Zrotation Yrotation Xrotation
		JOINT RightUpLeg
		{
			OFFSET -1.305520 -1.794630 0.839290
			CHANNELS 3 Zrotation Yrotation Xrotation
			JOINT RightLeg
			{
				OFFSET -2.542530 -6.985550 0.000000
				CHANNELS 3 Zrotation Yrotation Xrotation
				JOINT RightFoot
				{
					OFFSET -2.568260 -7.056230 0.000000
					CHANNELS 3 Zrotation Yrotation Xrotation
					JOINT RightToeBase
					{
						OFFSET -0.164730 -0.452590 2.363150
						CHANNELS 3 Zrotation Yrotation Xrotation
						End Site
						{
							OFFSET 0.000000 0.000000 0.000000
						}
					}
				}
			}
		}
	}
}
MOTION
Frames: 19
Frame Time: 0.008333
3.307073 15.720382 -0.115228 72.450799 -85.566963 -33.079256 -7.309887 -1.671014 1.412501 -10.513581 -8.812543 -88.038230 1.878147 5.045372 72.777336 3.485742 18.378907 13.707913 7.374499 0.000000 -52.001900 9.497331 2.280910 0.619162 11.725828 0.796755 -72.537238 1.704088 -4.977394 56.855069 -2.858397 -5.291727 -24.860357 1.825301 -0.000000 -46.838700
3.307538 15.767562 -0.151919 72.712210 -85.354385 -34.093476 -7.199293 -1.775741 1.337105 -10.647485 -8.813175 -88.687015 2.016028 5.094262 74.097450 3.447244 18.402836 17.209480 8.220399 0.000000 -50.969300 9.587369 2.326686 0.459493 11.683927 0.210796 -71.330270 1.743346 -4.893522 56.264664 -2.816268 -5.220745 -24.716243 1.795200 -0.000001 -47.143999
3.307636 15.814024 -0.187493 72.811754 -85.141496 -34.910397 -7.089067 -1.871161 1.278850 -10.765779 -8.846722 -89.434994 2.128665 5.152225 75.358041 3.373051 18.070855 20.384128 8.774200 -0.000001 -49.786200 9.672878 2.370869 0.307939 11.625188 -0.347639 -70.157318 1.779319 -4.806596 55.661508 -2.780800 -5.175511 -24.566209 1.768800 -0.000000 -47.412299
3.307331 15.859684 -0.221942 72.758382 -84.926590 -35.532879 -6.980450 -1.955228 1.236888 -10.872049 -8.921447 -90.292489 2.227007 5.222710 76.569617 3.268550 17.403981 23.141956 8.998600 0.000001 -48.635700 9.753811 2.414635 0.164861 11.548883 -0.876303 -69.024566 1.811744 -4.716983 55.047374 -2.752466 -5.157546 -24.411696 1.746600 0.000000 -47.643000
3.306666 15.904458 -0.255151 72.545508 -84.709361 -35.949826 -6.873808 -2.027579 1.210015 -10.968246 -9.043168 -91.269725 2.321109 5.307491 77.742704 3.141785 16.458721 25.434792 8.905700 0.000000 -47.729300 9.829535 2.458562 0.029861 11.457439 -1.374306 -67.936305 1.840842 -4.625088 54.422817 -2.731509 -5.167509 -24.253360 1.728600 0.000000 -47.834400
3.305772 15.948341 -0.287093 72.174843 -84.489329 -36.161515 -6.768456 -2.088963 1.195817 -11.057094 -9.213705 -92.373090 2.418443 5.407058 78.885348 3.001592 15.317202 27.247044 8.547700 -0.000000 -47.181100 9.899415 2.503003 -0.098485 11.354699 -1.842464 -66.894465 1.866995 -4.531480 53.788918 -2.717636 -5.204146 -24.091478 1.714600 0.000000 -47.984700
3.304752 15.991322 -0.317778 71.658702 -84.265809 -36.178460 -6.662712 -2.140693 1.192058 -11.139186 -9.433591 -93.604110 2.522578 5.519849 79.994783 2.857241 14.080326 28.604826 8.007800 0.000000 -47.127900 9.962970 2.548277 -0.222181 11.243951 -2.282980 -65.899904 1.890672 -4.436867 53.147312 -2.710238 -5.265033 -23.926209 1.704100 -0.000001 -48.090500
3.303773 16.033392 -0.347293 71.019073 -84.037093 -36.022701 -6.554309 -2.183865 1.196775 -11.213700 -9.702409 -94.957121 2.632995 5.642593 81.054310 2.717293 12.850965 29.565446 7.380400 -0.000000 -47.701800 10.020022 2.594946 -0.343739 11.127522 -2.700393 -64.953475 1.912384 -4.342157 52.499290 -2.708189 -5.346372 -23.755530 1.695800 -0.000000 -48.164200
3.302957 16.074527 -0.375614 70.265129 -83.803597 -35.702032 -6.442192 -2.219369 1.209454 -11.274535 -10.017821 -96.427314 2.747075 5.772010 82.040156 2.587664 11.710560 30.185658 6.744200 0.000000 -48.761000 10.069429 2.642214 -0.465628 11.012349 -3.098451 -64.057920 1.933191 -4.248546 51.847308 -2.710100 -5.442478 -23.578080 1.688600 0.000000 -48.203900
3.302628 16.114729 -0.403185 69.457983 -83.559799 -35.278905 -6.323145 -2.246010 1.229099 -11.319701 -10.379309 -97.996311 2.857001 5.902588 82.903482 2.473375 10.724454 30.565967 6.169200 0.000000 -50.416800 10.112869 2.692537 -0.590206 10.892914 -3.484516 -63.217380 1.952934 -4.157556 51.196522 -2.714159 -5.547470 -23.390991 1.680600 -0.000000 -48.237000
3.302676 16.153769 -0.429777 68.579353 -83.307959 -34.727840 -6.198765 -2.263418 1.260199 -11.329218 -10.785856 -99.660678 2.956314 6.030396 83.600108 2.375223 9.913990 30.767579 5.685100 -0.000000 -52.333100 10.147775 2.743201 -0.718886 10.782116 -3.861753 -62.440818 1.973581 -4.070697 50.549451 -2.718869 -5.654102 -23.192431 1.670200 0.000000 -48.259399
3.303268 16.191505 -0.455489 67.648606 -83.046663 -34.065150 -6.070031 -2.269564 1.306416 -11.286508 -11.235503 -101.408886 3.036383 6.151321 84.074025 2.290592 9.264308 30.856791 5.295500 0.000000 -54.164900 10.173597 2.794007 -0.852704 10.683857 -4.234503 -61.738783 1.996128 -3.989719 49.911644 -2.722601 -5.755292 -22.981071 1.656100 0.000001 -48.277900
3.304459 16.227644 -0.480695 66.706550 -82.770680 -33.324837 -5.937456 -2.260723 1.372962 -11.174079 -11.729637 -103.222755 3.085416 6.259633 84.251663 2.216087 8.743765 30.929665 4.992600 0.000000 -56.063101 10.191288 2.846494 -0.991674 10.594742 -4.607571 -61.125421 2.020847 -3.916458 49.290292 -2.723981 -5.845333 -22.755395 1.636700 0.000000 -48.327000
3.306136 16.261812 -0.505044 65.735033 -82.483924 -32.480525 -5.807237 -2.235017 1.466820 -10.964292 -12.260805 -105.102131 3.097987 6.354564 84.089280 2.140487 8.264679 30.988065 4.721900 -0.000000 -57.175000 10.197945 2.897442 -1.135041 10.527969 -4.979278 -60.614926 2.049790 -3.852463 48.691050 -2.722295 -5.918120 -22.519270 1.611800 -0.000000 -48.368600
3.308252 16.293688 -0.528978 64.771677 -82.180325 -31.561277 -5.682330 -2.187418 1.594299 -10.640706 -12.827496 -107.027598 3.063224 6.431715 83.514622 2.055888 7.760778 31.108303 4.449100 -0.000000 -57.796300 10.194797 2.948735 -1.281240 10.477944 -5.351157 -60.223317 2.082883 -3.799181 48.120821 -2.717097 -5.971245 -22.273006 1.581000 0.000000 -48.446100
3.310783 16.322847 -0.552275 63.813440 -81.861845 -30.556197 -5.570267 -2.115287 1.761682 -10.183940 -13.419421 -108.993790 2.976576 6.491165 82.487004 1.950204 7.147082 31.286395 4.119400 -0.000000 -57.508601 10.179765 2.998419 -1.428030 10.451059 -5.716523 -59.965261 2.121180 -3.757765 47.586590 -2.708997 -6.003435 -22.024853 1.545400 0.000000 -48.510700
3.313559 16.348939 -0.575127 62.880942 -81.525381 -29.476377 -5.477725 -2.013993 1.974680 -9.586771 -14.028756 -110.986205 2.832003 6.532246 80.958574 1.814786 6.373769 31.540141 3.701100 0.000000 -56.496201 10.152866 3.046708 -1.572422 10.444060 -6.069224 -59.853804 2.164467 -3.728864 47.093397 -2.699113 -6.017500 -21.779424 1.506400 0.000000 -48.567900
3.316518 16.371636 -0.597640 61.987697 -81.168917 -28.326884 -5.412955 -1.879410 2.238340 -8.849578 -14.646418 -112.989927 2.625207 6.555752 78.893714 1.642982 5.420708 31.860689 3.178000 0.000000 -54.971999 10.113513 3.093429 -1.711142 10.453854 -6.398774 -59.900375 2.212275 -3.712731 46.645307 -2.689529 -6.019527 -21.544193 1.465900 -0.000000 -48.599500
3.319552 16.390662 -0.619925 61.148404 -80.790127 -27.113492 -5.385210 -1.707588 2.557987 -7.980986 -15.265299 -114.988503 2.351775 6.562951 76.263281 1.431694 4.308687 32.226813 2.559600 0.000000 -53.362100 10.061312 3.138564 -1.841250 10.474874 -6.693028 -60.113007 2.263642 -3.709253 46.245253 -2.682771 -6.017968 -21.326372 1.426200 0.000000 -48.583399
